{
  "id": "edm-drop",
  "name": "EDM Drop",
  "category": "edm",
  "description": "128 BPM four-on-the-floor beat with bass, lead, and pad tracks.",
  "bpm": 128,
  "trackCount": 4,
  "arrangement": {
    "id": "tpl-edm",
    "name": "EDM Drop",
    "bpm": 128,
    "lengthBeats": 64,
    "tracks": [
      {
        "id": "t1",
        "name": "Drums",
        "instrument": { "type": "drums", "presetIndex": 0 },
        "regions": [
          {
            "id": "r1",
            "startBeat": 0,
            "lengthBeats": 16,
            "color": "oklch(0.62 0.22 25)",
            "name": "4-on-floor",
            "notes": [
              { "note": 36, "velocity": 110, "startBeat": 0, "durationBeats": 0.25, "isDrum": true },
              { "note": 42, "velocity": 70, "startBeat": 0.5, "durationBeats": 0.25, "isDrum": true },
              { "note": 42, "velocity": 80, "startBeat": 1, "durationBeats": 0.25, "isDrum": true },
              { "note": 42, "velocity": 70, "startBeat": 1.5, "durationBeats": 0.25, "isDrum": true },
              { "note": 36, "velocity": 110, "startBeat": 2, "durationBeats": 0.25, "isDrum": true },
              { "note": 38, "velocity": 90, "startBeat": 2, "durationBeats": 0.25, "isDrum": true },
              { "note": 42, "velocity": 70, "startBeat": 2.5, "durationBeats": 0.25, "isDrum": true },
              { "note": 42, "velocity": 80, "startBeat": 3, "durationBeats": 0.25, "isDrum": true },
              { "note": 42, "velocity": 70, "startBeat": 3.5, "durationBeats": 0.25, "isDrum": true },
              { "note": 36, "velocity": 110, "startBeat": 4, "durationBeats": 0.25, "isDrum": true },
              { "note": 42, "velocity": 70, "startBeat": 4.5, "durationBeats": 0.25, "isDrum": true },
              { "note": 42, "velocity": 80, "startBeat": 5, "durationBeats": 0.25, "isDrum": true },
              { "note": 42, "velocity": 70, "startBeat": 5.5, "durationBeats": 0.25, "isDrum": true },
              { "note": 36, "velocity": 110, "startBeat": 6, "durationBeats": 0.25, "isDrum": true },
              { "note": 38, "velocity": 90, "startBeat": 6, "durationBeats": 0.25, "isDrum": true },
              { "note": 42, "velocity": 70, "startBeat": 6.5, "durationBeats": 0.25, "isDrum": true },
              { "note": 46, "velocity": 75, "startBeat": 7, "durationBeats": 0.25, "isDrum": true },
              { "note": 42, "velocity": 70, "startBeat": 7.5, "durationBeats": 0.25, "isDrum": true },
              { "note": 36, "velocity": 110, "startBeat": 8, "durationBeats": 0.25, "isDrum": true },
              { "note": 42, "velocity": 70, "startBeat": 8.5, "durationBeats": 0.25, "isDrum": true },
              { "note": 42, "velocity": 80, "startBeat": 9, "durationBeats": 0.25, "isDrum": true },
              { "note": 42, "velocity": 70, "startBeat": 9.5, "durationBeats": 0.25, "isDrum": true },
              { "note": 36, "velocity": 110, "startBeat": 10, "durationBeats": 0.25, "isDrum": true },
              { "note": 38, "velocity": 90, "startBeat": 10, "durationBeats": 0.25, "isDrum": true },
              { "note": 42, "velocity": 70, "startBeat": 10.5, "durationBeats": 0.25, "isDrum": true },
              { "note": 42, "velocity": 80, "startBeat": 11, "durationBeats": 0.25, "isDrum": true },
              { "note": 42, "velocity": 70, "startBeat": 11.5, "durationBeats": 0.25, "isDrum": true },
              { "note": 36, "velocity": 110, "startBeat": 12, "durationBeats": 0.25, "isDrum": true },
              { "note": 42, "velocity": 70, "startBeat": 12.5, "durationBeats": 0.25, "isDrum": true },
              { "note": 42, "velocity": 80, "startBeat": 13, "durationBeats": 0.25, "isDrum": true },
              { "note": 42, "velocity": 70, "startBeat": 13.5, "durationBeats": 0.25, "isDrum": true },
              { "note": 36, "velocity": 110, "startBeat": 14, "durationBeats": 0.25, "isDrum": true },
              { "note": 38, "velocity": 90, "startBeat": 14, "durationBeats": 0.25, "isDrum": true },
              { "note": 49, "velocity": 85, "startBeat": 14, "durationBeats": 0.25, "isDrum": true },
              { "note": 42, "velocity": 70, "startBeat": 14.5, "durationBeats": 0.25, "isDrum": true },
              { "note": 42, "velocity": 80, "startBeat": 15, "durationBeats": 0.25, "isDrum": true },
              { "note": 42, "velocity": 70, "startBeat": 15.5, "durationBeats": 0.25, "isDrum": true }
            ]
          }
        ],
        "volume": -3,
        "pan": 0,
        "muted": false,
        "solo": false,
        "color": "oklch(0.62 0.22 25)"
      },
      {
        "id": "t2",
        "name": "Bass",
        "instrument": { "type": "synth", "presetIndex": 7 },
        "regions": [
          {
            "id": "r2",
            "startBeat": 0,
            "lengthBeats": 16,
            "color": "oklch(0.65 0.20 155)",
            "name": "Bass Drop",
            "notes": [
              { "note": 36, "velocity": 100, "startBeat": 0, "durationBeats": 1.5, "isDrum": false },
              { "note": 36, "velocity": 90, "startBeat": 2, "durationBeats": 1.5, "isDrum": false },
              { "note": 41, "velocity": 100, "startBeat": 4, "durationBeats": 1.5, "isDrum": false },
              { "note": 41, "velocity": 90, "startBeat": 6, "durationBeats": 1.5, "isDrum": false },
              { "note": 43, "velocity": 100, "startBeat": 8, "durationBeats": 1.5, "isDrum": false },
              { "note": 43, "velocity": 90, "startBeat": 10, "durationBeats": 1.5, "isDrum": false },
              { "note": 41, "velocity": 100, "startBeat": 12, "durationBeats": 2, "isDrum": false },
              { "note": 39, "velocity": 100, "startBeat": 14, "durationBeats": 2, "isDrum": false }
            ]
          }
        ],
        "volume": -5,
        "pan": 0,
        "muted": false,
        "solo": false,
        "color": "oklch(0.65 0.20 155)"
      },
      {
        "id": "t3",
        "name": "Lead",
        "instrument": { "type": "synth", "presetIndex": 10 },
        "regions": [],
        "volume": -8,
        "pan": 0,
        "muted": false,
        "solo": false,
        "color": "oklch(0.65 0.20 250)"
      },
      {
        "id": "t4",
        "name": "Pad",
        "instrument": { "type": "synth", "presetIndex": 6 },
        "regions": [],
        "volume": -14,
        "pan": 0,
        "muted": false,
        "solo": false,
        "color": "oklch(0.62 0.22 310)"
      }
    ],
    "markers": [
      { "id": "m1", "name": "Build", "beat": 0, "color": "oklch(0.75 0.17 90)" },
      { "id": "m2", "name": "Drop", "beat": 16, "color": "oklch(0.65 0.20 25)" },
      { "id": "m3", "name": "Breakdown", "beat": 32, "color": "oklch(0.65 0.20 250)" },
      { "id": "m4", "name": "Drop 2", "beat": 48, "color": "oklch(0.65 0.20 25)" }
    ]
  }
}
