{
  "id": "hip-hop-beat",
  "name": "Hip-Hop Beat",
  "category": "hip-hop",
  "description": "90 BPM trap-style pattern with booming drums, sub bass, and a synth pad.",
  "bpm": 90,
  "trackCount": 3,
  "arrangement": {
    "id": "tpl-hiphop",
    "name": "Hip-Hop Beat",
    "bpm": 90,
    "lengthBeats": 64,
    "tracks": [
      {
        "id": "t1",
        "name": "Drums",
        "instrument": { "type": "drums", "presetIndex": 0 },
        "regions": [
          {
            "id": "r1",
            "startBeat": 0,
            "lengthBeats": 16,
            "color": "oklch(0.62 0.22 25)",
            "name": "Trap Beat",
            "notes": [
              { "note": 36, "velocity": 110, "startBeat": 0, "durationBeats": 0.25, "isDrum": true },
              { "note": 42, "velocity": 70, "startBeat": 1, "durationBeats": 0.25, "isDrum": true },
              { "note": 38, "velocity": 100, "startBeat": 2, "durationBeats": 0.25, "isDrum": true },
              { "note": 42, "velocity": 70, "startBeat": 3, "durationBeats": 0.25, "isDrum": true },
              { "note": 36, "velocity": 100, "startBeat": 3.5, "durationBeats": 0.25, "isDrum": true },
              { "note": 42, "velocity": 75, "startBeat": 4, "durationBeats": 0.25, "isDrum": true },
              { "note": 42, "velocity": 60, "startBeat": 4.5, "durationBeats": 0.25, "isDrum": true },
              { "note": 42, "velocity": 55, "startBeat": 4.75, "durationBeats": 0.25, "isDrum": true },
              { "note": 42, "velocity": 70, "startBeat": 5, "durationBeats": 0.25, "isDrum": true },
              { "note": 38, "velocity": 100, "startBeat": 6, "durationBeats": 0.25, "isDrum": true },
              { "note": 42, "velocity": 70, "startBeat": 7, "durationBeats": 0.25, "isDrum": true },
              { "note": 36, "velocity": 110, "startBeat": 8, "durationBeats": 0.25, "isDrum": true },
              { "note": 42, "velocity": 70, "startBeat": 9, "durationBeats": 0.25, "isDrum": true },
              { "note": 38, "velocity": 100, "startBeat": 10, "durationBeats": 0.25, "isDrum": true },
              { "note": 42, "velocity": 70, "startBeat": 11, "durationBeats": 0.25, "isDrum": true },
              { "note": 36, "velocity": 100, "startBeat": 11.5, "durationBeats": 0.25, "isDrum": true },
              { "note": 46, "velocity": 80, "startBeat": 12, "durationBeats": 0.25, "isDrum": true },
              { "note": 42, "velocity": 65, "startBeat": 13, "durationBeats": 0.25, "isDrum": true },
              { "note": 38, "velocity": 100, "startBeat": 14, "durationBeats": 0.25, "isDrum": true },
              { "note": 39, "velocity": 90, "startBeat": 15, "durationBeats": 0.25, "isDrum": true }
            ]
          }
        ],
        "volume": -3,
        "pan": 0,
        "muted": false,
        "solo": false,
        "color": "oklch(0.62 0.22 25)"
      },
      {
        "id": "t2",
        "name": "Sub Bass",
        "instrument": { "type": "synth", "presetIndex": 8 },
        "regions": [
          {
            "id": "r2",
            "startBeat": 0,
            "lengthBeats": 16,
            "color": "oklch(0.65 0.20 155)",
            "name": "808 Line",
            "notes": [
              { "note": 36, "velocity": 100, "startBeat": 0, "durationBeats": 3, "isDrum": false },
              { "note": 36, "velocity": 90, "startBeat": 3.5, "durationBeats": 0.5, "isDrum": false },
              { "note": 38, "velocity": 100, "startBeat": 4, "durationBeats": 3, "isDrum": false },
              { "note": 36, "velocity": 100, "startBeat": 8, "durationBeats": 3, "isDrum": false },
              { "note": 34, "velocity": 100, "startBeat": 12, "durationBeats": 4, "isDrum": false }
            ]
          }
        ],
        "volume": -4,
        "pan": 0,
        "muted": false,
        "solo": false,
        "color": "oklch(0.65 0.20 155)"
      },
      {
        "id": "t3",
        "name": "Pad",
        "instrument": { "type": "synth", "presetIndex": 6 },
        "regions": [],
        "volume": -14,
        "pan": 0,
        "muted": false,
        "solo": false,
        "color": "oklch(0.62 0.22 310)"
      }
    ]
  }
}
