{
  "id": "rock-song",
  "name": "Rock Song",
  "category": "rock",
  "description": "Classic rock setup: drums with a driving beat, bass, rhythm guitar, and lead.",
  "bpm": 120,
  "trackCount": 4,
  "arrangement": {
    "id": "tpl-rock",
    "name": "Rock Song",
    "bpm": 120,
    "lengthBeats": 64,
    "tracks": [
      {
        "id": "t1",
        "name": "Drums",
        "instrument": { "type": "drums", "presetIndex": 0 },
        "regions": [
          {
            "id": "r1",
            "startBeat": 0,
            "lengthBeats": 16,
            "color": "oklch(0.62 0.22 25)",
            "name": "Rock Beat",
            "notes": [
              { "note": 36, "velocity": 100, "startBeat": 0, "durationBeats": 0.25, "isDrum": true },
              { "note": 42, "velocity": 80, "startBeat": 0, "durationBeats": 0.25, "isDrum": true },
              { "note": 42, "velocity": 70, "startBeat": 1, "durationBeats": 0.25, "isDrum": true },
              { "note": 38, "velocity": 100, "startBeat": 2, "durationBeats": 0.25, "isDrum": true },
              { "note": 42, "velocity": 80, "startBeat": 2, "durationBeats": 0.25, "isDrum": true },
              { "note": 42, "velocity": 70, "startBeat": 3, "durationBeats": 0.25, "isDrum": true },
              { "note": 36, "velocity": 100, "startBeat": 4, "durationBeats": 0.25, "isDrum": true },
              { "note": 42, "velocity": 80, "startBeat": 4, "durationBeats": 0.25, "isDrum": true },
              { "note": 42, "velocity": 70, "startBeat": 5, "durationBeats": 0.25, "isDrum": true },
              { "note": 38, "velocity": 100, "startBeat": 6, "durationBeats": 0.25, "isDrum": true },
              { "note": 42, "velocity": 80, "startBeat": 6, "durationBeats": 0.25, "isDrum": true },
              { "note": 42, "velocity": 70, "startBeat": 7, "durationBeats": 0.25, "isDrum": true },
              { "note": 36, "velocity": 100, "startBeat": 8, "durationBeats": 0.25, "isDrum": true },
              { "note": 42, "velocity": 80, "startBeat": 8, "durationBeats": 0.25, "isDrum": true },
              { "note": 42, "velocity": 70, "startBeat": 9, "durationBeats": 0.25, "isDrum": true },
              { "note": 38, "velocity": 100, "startBeat": 10, "durationBeats": 0.25, "isDrum": true },
              { "note": 42, "velocity": 80, "startBeat": 10, "durationBeats": 0.25, "isDrum": true },
              { "note": 42, "velocity": 70, "startBeat": 11, "durationBeats": 0.25, "isDrum": true },
              { "note": 36, "velocity": 100, "startBeat": 12, "durationBeats": 0.25, "isDrum": true },
              { "note": 42, "velocity": 80, "startBeat": 12, "durationBeats": 0.25, "isDrum": true },
              { "note": 42, "velocity": 70, "startBeat": 13, "durationBeats": 0.25, "isDrum": true },
              { "note": 38, "velocity": 100, "startBeat": 14, "durationBeats": 0.25, "isDrum": true },
              { "note": 49, "velocity": 90, "startBeat": 14, "durationBeats": 0.25, "isDrum": true },
              { "note": 42, "velocity": 70, "startBeat": 15, "durationBeats": 0.25, "isDrum": true }
            ]
          }
        ],
        "volume": -4,
        "pan": 0,
        "muted": false,
        "solo": false,
        "color": "oklch(0.62 0.22 25)"
      },
      {
        "id": "t2",
        "name": "Bass",
        "instrument": { "type": "synth", "presetIndex": 7 },
        "regions": [
          {
            "id": "r2",
            "startBeat": 0,
            "lengthBeats": 16,
            "color": "oklch(0.65 0.20 155)",
            "name": "Bass Riff",
            "notes": [
              { "note": 40, "velocity": 90, "startBeat": 0, "durationBeats": 1.5, "isDrum": false },
              { "note": 40, "velocity": 80, "startBeat": 2, "durationBeats": 0.5, "isDrum": false },
              { "note": 40, "velocity": 85, "startBeat": 3, "durationBeats": 1, "isDrum": false },
              { "note": 43, "velocity": 90, "startBeat": 4, "durationBeats": 1.5, "isDrum": false },
              { "note": 43, "velocity": 80, "startBeat": 6, "durationBeats": 0.5, "isDrum": false },
              { "note": 43, "velocity": 85, "startBeat": 7, "durationBeats": 1, "isDrum": false },
              { "note": 45, "velocity": 90, "startBeat": 8, "durationBeats": 1.5, "isDrum": false },
              { "note": 45, "velocity": 80, "startBeat": 10, "durationBeats": 0.5, "isDrum": false },
              { "note": 43, "velocity": 90, "startBeat": 12, "durationBeats": 2, "isDrum": false },
              { "note": 40, "velocity": 85, "startBeat": 14, "durationBeats": 2, "isDrum": false }
            ]
          }
        ],
        "volume": -6,
        "pan": 0,
        "muted": false,
        "solo": false,
        "color": "oklch(0.65 0.20 155)"
      },
      {
        "id": "t3",
        "name": "Lead",
        "instrument": { "type": "synth", "presetIndex": 10 },
        "regions": [],
        "volume": -8,
        "pan": 0.2,
        "muted": false,
        "solo": false,
        "color": "oklch(0.65 0.20 250)"
      },
      {
        "id": "t4",
        "name": "Pad",
        "instrument": { "type": "synth", "presetIndex": 6 },
        "regions": [],
        "volume": -12,
        "pan": -0.2,
        "muted": false,
        "solo": false,
        "color": "oklch(0.62 0.22 310)"
      }
    ],
    "markers": [
      { "id": "m1", "name": "Intro", "beat": 0, "color": "oklch(0.65 0.20 25)" },
      { "id": "m2", "name": "Verse", "beat": 16, "color": "oklch(0.65 0.20 155)" },
      { "id": "m3", "name": "Chorus", "beat": 32, "color": "oklch(0.65 0.20 250)" },
      { "id": "m4", "name": "Outro", "beat": 48, "color": "oklch(0.62 0.22 310)" }
    ]
  }
}
